<?xml version="1.0" standalone="no"?>
<!DOCTYPE svg PUBLIC "-//W3C//DTD SVG 20010904//EN"
 "http://www.w3.org/TR/2001/REC-SVG-20010904/DTD/svg10.dtd">
<svg version="1.0" xmlns="http://www.w3.org/2000/svg"
 width="512.000000pt" height="512.000000pt" viewBox="0 0 512.000000 512.000000"
 preserveAspectRatio="xMidYMid meet">
<metadata>
Created by potrace 1.11, written by Peter Selinger 2001-2013
</metadata>
<g transform="translate(0.000000,512.000000) scale(0.100000,-0.100000)"
fill="#000000" stroke="none">
<path d="M2543 4783 c-4 -10 -26 -49 -48 -88 -23 -38 -55 -95 -72 -125 -17
-30 -64 -113 -105 -185 -41 -71 -86 -150 -100 -175 -14 -25 -48 -85 -77 -134
-28 -49 -51 -91 -51 -93 0 -2 -16 -29 -35 -59 -19 -30 -35 -56 -35 -58 0 -2
-33 -62 -74 -133 -40 -70 -84 -148 -98 -173 -14 -25 -77 -135 -140 -245 -63
-110 -126 -220 -140 -245 -112 -198 -284 -500 -297 -520 -8 -14 -26 -45 -39
-69 -13 -24 -33 -58 -43 -75 -10 -17 -26 -44 -35 -61 -10 -16 -107 -187 -217
-380 -110 -192 -211 -370 -225 -395 -37 -67 -256 -450 -362 -635 -35 -60 -73
-128 -85 -150 -13 -22 -48 -85 -80 -140 -31 -55 -71 -124 -87 -154 -16 -29
-45 -79 -63 -110 l-33 -56 1279 -3 c703 -1 1854 -1 2558 0 l1278 3 -179 315
c-99 173 -192 335 -206 360 -14 25 -115 203 -225 395 -110 193 -211 370 -225
395 -14 25 -50 88 -80 140 -30 52 -66 115 -80 140 -14 25 -114 200 -222 390
-108 190 -211 370 -228 401 -17 31 -61 107 -97 168 -36 62 -65 114 -65 116 0
3 -17 33 -38 67 -21 35 -52 88 -69 118 -16 30 -62 111 -102 179 -39 69 -71
126 -71 128 0 1 -18 32 -40 68 -22 36 -40 67 -40 69 0 3 -127 228 -150 266 -5
8 -49 84 -97 169 -48 85 -95 166 -103 180 -8 14 -35 62 -60 106 -25 44 -49 88
-55 97 -5 9 -34 60 -64 112 -30 53 -58 96 -63 96 -5 0 -12 -8 -15 -17z"/>
</g>
</svg>
